<?xml version="1.0" standalone="no"?>
<!DOCTYPE svg PUBLIC "-//W3C//DTD SVG 20010904//EN"
 "http://www.w3.org/TR/2001/REC-SVG-20010904/DTD/svg10.dtd">
<svg version="1.0" xmlns="http://www.w3.org/2000/svg"
 width="1280.000000pt" height="640.000000pt" viewBox="0 0 1280.000000 640.000000"
 preserveAspectRatio="xMidYMid meet">
<metadata>
Created by potrace 1.15, written by Peter Selinger 2001-2017
</metadata>
<g transform="translate(0.000000,640.000000) scale(0.100000,-0.100000)"
fill="#000000" stroke="none">
<path d="M3910 4961 c0 -21 97 -136 190 -224 124 -118 222 -173 332 -187 40
-5 170 -12 289 -16 l217 -7 118 -130 c160 -174 346 -353 734 -707 179 -163
351 -320 383 -349 34 -32 57 -47 57 -38 0 8 -11 122 -25 253 -14 131 -25 239
-25 240 0 1 -19 13 -43 26 -78 44 -507 377 -619 481 -45 41 -47 58 -17 190 29
132 24 248 -14 305 -36 56 -91 94 -191 134 l-81 33 -652 3 c-397 1 -653 -1
-653 -7z"/>
<path d="M7533 4941 c-137 -48 -206 -99 -240 -178 -19 -48 -16 -164 9 -283 12
-58 19 -117 15 -131 -11 -43 -502 -436 -681 -544 -13 -8 -21 -55 -41 -249 -14
-131 -25 -245 -25 -253 0 -9 23 6 58 38 31 29 205 187 386 352 393 359 571
531 730 704 l118 130 217 7 c119 4 249 11 289 16 110 14 208 69 332 187 103
98 194 208 184 224 -3 5 -272 9 -637 9 l-632 0 -82 -29z"/>
<path d="M0 4930 c0 -93 145 -227 333 -307 70 -30 99 -37 197 -44 63 -4 549
-8 1078 -8 l964 -1 -79 64 c-43 36 -129 121 -192 190 l-113 126 -1094 0
c-1093 0 -1094 0 -1094 -20z"/>
<path d="M2443 4943 c-18 -2 -33 -9 -33 -15 0 -37 170 -209 283 -287 93 -64
123 -71 310 -81 201 -11 1097 -13 1097 -2 0 4 -25 27 -56 52 -76 62 -218 224
-251 287 l-28 53 -645 -2 c-355 0 -660 -3 -677 -5z"/>
<path d="M9007 4898 c-33 -64 -175 -226 -251 -288 -31 -25 -56 -48 -56 -52 0
-11 896 -9 1097 2 195 10 219 17 332 97 74 53 228 205 250 246 8 15 11 30 7
34 -4 5 -310 9 -679 11 l-672 3 -28 -53z"/>
<path d="M10499 4824 c-63 -69 -149 -154 -192 -190 l-79 -64 964 1 c529 0
1015 4 1078 8 98 7 127 14 197 44 188 80 333 214 333 307 0 20 -1 20 -1094 20
l-1094 0 -113 -126z"/>
<path d="M211 4401 c-18 -12 10 -52 81 -116 65 -58 113 -87 224 -131 l88 -36
1162 -1 c639 -1 1166 2 1171 6 4 5 -24 70 -64 145 l-71 137 -1289 2 c-733 2
-1294 -1 -1302 -6z"/>
<path d="M2993 4339 c15 -184 117 -249 343 -221 155 20 571 167 599 212 4 6 4
27 1 46 l-7 34 -471 0 -471 0 6 -71z"/>
<path d="M4085 4399 c-11 -17 21 -45 96 -84 l69 -36 0 -74 c0 -85 11 -98 88
-111 23 -4 45 -12 49 -18 4 -6 12 -44 17 -86 l11 -75 55 -8 c93 -13 106 -32
125 -178 9 -71 22 -81 109 -94 l77 -10 24 -60 c37 -90 59 -107 150 -114 51 -5
79 -12 85 -21 6 -8 10 -41 10 -73 0 -68 2 -69 128 -87 l81 -12 20 -68 c12 -37
27 -73 35 -79 8 -7 54 -19 103 -28 93 -17 97 -20 173 -110 22 -26 34 -31 95
-38 93 -9 125 -24 171 -79 21 -26 56 -58 77 -72 l38 -25 55 20 c91 35 96 32
140 -59 37 -79 56 -96 88 -84 12 4 16 19 16 53 0 71 -86 480 -106 505 -29 36
-123 124 -620 580 -264 242 -527 484 -585 538 l-107 98 -380 0 c-258 0 -383
-3 -387 -11z"/>
<path d="M7463 3967 c-657 -603 -797 -734 -823 -769 -16 -21 -34 -88 -66 -246
-49 -244 -54 -307 -25 -317 33 -10 47 4 86 85 43 91 48 94 139 59 l55 -20 38
25 c21 14 56 46 77 72 46 55 78 70 171 79 61 7 73 12 95 38 76 90 80 93 173
110 49 9 95 21 102 27 7 6 23 41 35 79 l22 69 80 12 c126 18 128 19 128 87 0
32 4 65 10 73 6 9 34 16 85 21 91 7 113 24 150 114 l24 60 73 10 c40 6 79 14
85 18 15 9 29 61 38 141 9 75 34 102 101 111 27 4 54 8 61 10 6 2 14 34 18 72
10 89 16 99 67 107 77 13 88 26 88 111 l0 74 69 36 c75 39 107 67 96 84 -4 8
-129 11 -388 10 l-382 0 -482 -442z"/>
<path d="M8864 4376 c-3 -19 -3 -40 1 -46 28 -45 444 -192 599 -212 226 -28
328 37 343 221 l6 71 -471 0 -471 0 -7 -34z"/>
<path d="M9934 4284 c-36 -69 -68 -134 -71 -144 -4 -16 8 -18 174 -25 98 -5
625 -5 1172 -1 l993 7 85 34 c108 43 157 72 221 130 71 64 99 104 81 116 -8 5
-576 9 -1301 9 l-1287 0 -67 -126z"/>
<path d="M3935 4189 c-224 -100 -406 -145 -632 -156 -148 -7 -150 -8 -139 -69
10 -49 66 -107 138 -144 52 -26 72 -30 138 -30 116 0 251 38 405 114 193 95
252 149 269 248 16 89 -38 100 -179 37z"/>
<path d="M8690 4210 c-26 -49 18 -150 89 -206 75 -59 294 -161 405 -189 142
-36 234 -34 314 5 72 37 128 95 138 144 11 61 9 62 -139 69 -226 11 -390 51
-618 151 -118 51 -172 58 -189 26z"/>
<path d="M573 4013 c-73 -2 -133 -7 -133 -12 0 -17 64 -103 94 -126 40 -30
133 -73 249 -114 l89 -31 1124 0 c618 0 1124 2 1124 5 0 17 -76 206 -96 243
l-25 42 -1147 -2 c-631 -1 -1207 -4 -1279 -5z"/>
<path d="M9777 3978 c-21 -37 -97 -226 -97 -243 0 -3 506 -5 1124 -5 l1124 0
89 31 c150 52 247 104 286 151 42 52 61 87 52 96 -4 4 -580 9 -1280 10 l-1273
4 -25 -44z"/>
<path d="M4175 3960 c-27 -11 -95 -43 -150 -71 -55 -28 -138 -71 -185 -95 -98
-50 -190 -76 -410 -114 l-155 -27 3 -32 c6 -75 80 -164 148 -177 62 -11 192 5
263 33 113 44 323 156 395 210 37 28 97 79 132 113 68 66 77 94 54 154 -11 31
-28 32 -95 6z"/>
<path d="M8530 3956 c-23 -62 -14 -89 54 -156 35 -34 95 -85 132 -113 73 -55
282 -166 396 -211 73 -29 198 -44 262 -32 68 13 142 101 148 177 l3 32 -165
29 c-257 44 -351 75 -490 158 -78 47 -254 127 -298 136 -28 6 -33 3 -42 -20z"/>
<path d="M4392 3749 c-13 -5 -112 -67 -220 -138 -291 -191 -394 -239 -576
-270 -67 -12 -103 -23 -110 -34 -15 -24 18 -117 55 -153 29 -28 34 -29 128
-29 l97 0 115 56 c183 90 416 254 516 362 47 51 93 135 93 170 0 43 -42 59
-98 36z"/>
<path d="M8322 3748 c-30 -30 8 -126 81 -205 100 -108 333 -272 516 -362 l115
-56 97 0 c94 0 99 1 128 29 37 36 70 129 55 153 -7 11 -43 22 -110 34 -182 31
-285 79 -576 270 -108 71 -208 133 -223 139 -35 13 -68 13 -83 -2z"/>
<path d="M751 3578 c17 -60 43 -82 185 -153 239 -122 90 -109 1327 -113 l1077
-3 0 25 c0 17 -13 34 -40 56 -22 18 -48 46 -57 64 -8 17 -34 59 -56 94 l-41
62 -1202 0 -1203 0 10 -32z"/>
<path d="M9613 3548 c-22 -35 -48 -77 -56 -94 -9 -18 -35 -46 -57 -64 -27 -22
-40 -39 -40 -56 l0 -25 1078 3 c1236 4 1087 -9 1326 113 142 71 168 93 185
153 l10 32 -1203 0 -1202 0 -41 -62z"/>
<path d="M4595 3510 c-22 -11 -103 -75 -180 -141 -77 -67 -171 -139 -210 -162
-89 -52 -328 -163 -425 -197 -70 -24 -75 -28 -78 -58 -2 -17 6 -51 17 -76 27
-62 63 -79 155 -74 66 4 78 8 170 63 111 68 308 213 443 328 182 154 243 250
197 315 -19 27 -38 28 -89 2z"/>
<path d="M8116 3509 c-46 -66 14 -161 197 -316 135 -115 332 -260 443 -328 92
-55 104 -59 170 -63 51 -3 79 0 102 12 37 19 75 92 70 137 -3 31 -7 34 -78 59
-97 34 -336 145 -425 197 -39 23 -128 91 -200 153 -194 167 -246 195 -279 149z"/>
<path d="M4793 3320 c-29 -17 -80 -63 -120 -107 -153 -175 -273 -275 -543
-453 -69 -45 -131 -87 -137 -92 -18 -14 26 -93 84 -154 l45 -47 59 6 c37 3 75
14 102 30 71 42 206 166 347 321 221 241 275 324 287 438 5 52 4 63 -12 74
-28 21 -55 17 -112 -16z"/>
<path d="M7895 3337 c-26 -20 -16 -116 20 -190 73 -148 456 -558 602 -644 27
-16 65 -27 102 -30 l59 -6 45 47 c58 61 102 140 84 154 -6 5 -68 47 -137 92
-205 136 -350 248 -435 338 -161 171 -203 210 -243 231 -48 24 -71 26 -97 8z"/>
<path d="M1230 3183 c0 -13 203 -150 292 -198 157 -83 71 -77 1116 -82 l932
-5 0 24 c0 30 -27 67 -131 180 l-80 88 -1065 0 c-585 0 -1064 -3 -1064 -7z"/>
<path d="M9361 3102 c-104 -113 -131 -150 -131 -180 l0 -24 933 4 c924 5 932
5 991 26 33 12 93 40 135 63 83 45 281 180 281 192 0 4 -479 7 -1064 7 l-1065
0 -80 -88z"/>
<path d="M5091 3153 c-52 -26 -150 -129 -308 -323 -176 -218 -251 -293 -376
-376 -113 -76 -134 -101 -116 -136 48 -92 129 -144 209 -135 71 8 171 62 236
125 112 109 413 540 440 629 25 84 10 200 -29 225 -16 10 -17 10 -56 -9z"/>
<path d="M7653 3162 c-40 -25 -54 -141 -29 -226 27 -88 322 -510 435 -623 69
-68 168 -121 241 -130 80 -9 161 43 209 135 18 35 -3 60 -117 136 -115 77
-213 173 -348 341 -241 300 -344 397 -391 367z"/>
<path d="M5345 2946 c-58 -25 -144 -140 -241 -321 -73 -137 -95 -166 -271
-348 -179 -186 -186 -198 -133 -247 59 -55 204 -79 269 -45 38 19 120 112 186
210 99 149 232 394 259 478 73 229 49 324 -69 273z"/>
<path d="M7365 2947 c-45 -34 -7 -240 73 -396 127 -251 300 -504 381 -558 65
-44 216 -24 281 37 53 49 47 60 -142 257 -95 99 -187 204 -204 234 -17 30 -60
105 -94 167 -66 116 -136 211 -180 244 -36 26 -90 33 -115 15z"/>
<path d="M5644 2806 c-36 -16 -74 -74 -129 -196 -144 -322 -220 -443 -432
-687 -35 -40 -63 -77 -63 -81 0 -4 16 -24 36 -43 35 -34 36 -34 127 -34 77 0
99 4 137 24 103 55 206 193 331 446 96 195 129 303 136 441 5 94 4 103 -16
123 -25 25 -79 28 -127 7z"/>
<path d="M7030 2800 c-16 -16 -20 -33 -20 -94 0 -144 42 -281 151 -496 118
-233 221 -369 319 -421 38 -20 60 -24 137 -24 91 0 92 0 127 34 20 19 36 39
36 43 0 4 -28 41 -63 81 -163 187 -206 247 -314 437 -11 20 -50 103 -88 185
-89 194 -119 244 -161 261 -48 20 -100 18 -124 -6z"/>
<path d="M1880 2781 c0 -24 106 -98 224 -156 224 -111 501 -189 761 -214 285
-28 1070 -43 1104 -22 11 7 6 25 -28 94 -48 97 -133 196 -225 264 l-58 43
-889 0 c-516 0 -889 -4 -889 -9z"/>
<path d="M9084 2747 c-94 -69 -180 -171 -226 -265 -33 -68 -38 -86 -27 -93 34
-21 820 -6 1104 22 260 25 537 103 761 214 118 58 224 132 224 156 0 5 -373 9
-889 9 l-889 0 -58 -43z"/>
<path d="M5964 2671 c-56 -34 -123 -144 -124 -202 0 -54 -89 -288 -175 -464
-45 -90 -72 -129 -142 -206 -110 -120 -117 -132 -104 -158 32 -58 133 -98 226
-88 139 14 215 98 317 349 89 219 162 571 144 692 -13 87 -73 119 -142 77z"/>
<path d="M6725 2666 c-35 -35 -41 -100 -22 -247 22 -169 74 -368 135 -517 103
-251 179 -335 317 -349 93 -10 194 30 226 88 13 26 6 38 -99 153 -45 49 -95
113 -112 142 -76 136 -194 430 -209 524 -27 163 -161 281 -236 206z"/>
<path d="M6238 2473 c-22 -26 -46 -106 -59 -198 -12 -87 -60 -261 -109 -396
-29 -80 -76 -158 -200 -332 l-35 -49 23 -18 c26 -22 100 -39 197 -47 79 -6
123 10 189 68 69 60 71 75 71 529 0 223 -4 417 -8 433 -9 32 -45 37 -69 10z"/>
<path d="M6493 2463 c-5 -16 -8 -210 -8 -433 0 -367 2 -409 18 -452 31 -79
128 -148 211 -148 99 0 246 41 246 69 0 4 -34 55 -75 112 -42 57 -89 127 -106
156 -52 91 -142 381 -159 513 -12 86 -36 167 -58 193 -24 27 -60 22 -69 -10z"/>
</g>
</svg>
